# xmcd
#
# Track frame offsets:
#	183
#	10395
#	20123
#	36748
#	49388
#	63725
#	79063
#	90988
#	103755
#	113380
#	125988
#	138178
#	150948
#	166318
#	182150
#	192123
#
# Disc length: 2729 seconds
#
# Revision: 2
# Processed by: cddbd v1.5.2PL0 Copyright (c) Steve Scherf et al.
# Submitted via: audiograbber 1.83.01
#
DISCID=d80aa710
DTITLE=Various Artist - Trucker Songs 2
DYEAR=1985
DGENRE=Country
TTITLE0=Dave Dudley - Six Days On The Road
TTITLE1=Dennis Olson - Truckdrivin' Outlaw
TTITLE2=Davy Kendall - Me And My Old Truck
TTITLE3=Red Simpson - Roll, Truck Roll
TTITLE4=Tommy Stevens - I Long To See The Places
TTITLE5=Narvil Jenkins - Red Light Blues
TTITLE6=Tom Astor - Hello And Good Morning Highway
TTITLE7=Winston Brothers - The Only Life For Me
TTITLE8=Dave Dudley - Truckdrivin' Son-Of-A-Gun
TTITLE9=Nick SHavers and Winston Brothers - Ghost Truckers
TTITLE10=Merle Kilgore - 42 in Chicago, 81 in L.A.
TTITLE11=Winston Brothers - Dear Old Friend
TTITLE12=Red Simpson - I'm A Truck
TTITLE13=Guy Drake - Welfare Cadillac
TTITLE14=Tom Teven and Country Stop - Her Life That Is The Highway
TTITLE15=Nick Shavers - Son Of A Truckdrivin' Sun-Of-A-Gun
EXTD=
EXTT0=
EXTT1=
EXTT2=
EXTT3=
EXTT4=
EXTT5=
EXTT6=
EXTT7=
EXTT8=
EXTT9=
EXTT10=
EXTT11=
EXTT12=
EXTT13=
EXTT14=
EXTT15=
PLAYORDER=
